<svg width="165.5" height="53" viewBox="0 0 165.5 53" version="1.1" xmlns="http://www.w3.org/2000/svg" xmlns:xlink="http://www.w3.org/1999/xlink" xmlns:figma="http://www.figma.com/figma/ns">
<title>Group</title>
<desc>Created using Figma</desc>
<g id="Canvas" transform="matrix(0.5 0 0 0.5 -36 -92)" figma:type="canvas">
<g id="Group" style="mix-blend-mode:normal;" figma:type="frame">
<g id="Group" style="mix-blend-mode:normal;" figma:type="frame">
<g id="IDENTITY" style="mix-blend-mode:normal;" figma:type="text">
<use xlink:href="#path0_fill" transform="translate(101.5 192)" style="mix-blend-mode:normal;"/>
</g>
<g id="lab" style="mix-blend-mode:normal;" figma:type="text">
<use xlink:href="#path1_fill" transform="translate(288 243.5)" style="mix-blend-mode:normal;"/>
</g>
<g id="Vector" style="mix-blend-mode:normal;" figma:type="vector">
<use xlink:href="#path2_stroke" transform="translate(74 185.5)" style="mix-blend-mode:normal;"/>
</g>
</g>
</g>
</g>
<defs>
<path id="path0_fill" d="M 4.8 56L 4.8 13.4L 11.52 13.4L 11.52 56L 4.8 56ZM 21.1477 56L 21.1477 13.4L 36.2677 13.4C 39.7077 13.4 42.7077 13.96 45.2677 15.08C 47.8677 16.2 50.0277 17.72 51.7477 19.64C 53.5077 21.56 54.8277 23.82 55.7077 26.42C 56.5877 28.98 57.0277 31.72 57.0277 34.64C 57.0277 37.88 56.5277 40.82 55.5277 43.46C 54.5677 46.06 53.1877 48.3 51.3877 50.18C 49.5877 52.02 47.4077 53.46 44.8477 54.5C 42.2877 55.5 39.4277 56 36.2677 56L 21.1477 56ZM 50.1877 34.64C 50.1877 32.4 49.8677 30.34 49.2277 28.46C 48.6277 26.58 47.7277 24.98 46.5277 23.66C 45.3277 22.3 43.8677 21.24 42.1477 20.48C 40.4277 19.72 38.4677 19.34 36.2677 19.34L 27.8677 19.34L 27.8677 50.06L 36.2677 50.06C 38.5077 50.06 40.4877 49.68 42.2077 48.92C 43.9677 48.12 45.4277 47.04 46.5877 45.68C 47.7877 44.28 48.6877 42.64 49.2877 40.76C 49.8877 38.88 50.1877 36.84 50.1877 34.64ZM 93.3169 50.06L 93.3169 56L 64.0969 56L 64.0969 13.4L 92.7769 13.4L 92.7769 19.34L 70.8169 19.34L 70.8169 31.46L 89.8369 31.46L 89.8369 37.04L 70.8169 37.04L 70.8169 50.06L 93.3169 50.06ZM 106.969 26L 106.969 56L 100.249 56L 100.249 13.4L 105.529 13.4L 129.889 44.12L 129.889 13.46L 136.669 13.46L 136.669 56L 131.089 56L 106.969 26ZM 177.505 19.34L 163.345 19.34L 163.345 56L 156.565 56L 156.565 19.34L 142.345 19.34L 142.345 13.4L 177.505 13.4L 177.505 19.34ZM 183.218 56L 183.218 13.4L 189.938 13.4L 189.938 56L 183.218 56ZM 230.826 19.34L 216.666 19.34L 216.666 56L 209.886 56L 209.886 19.34L 195.666 19.34L 195.666 13.4L 230.826 13.4L 230.826 19.34ZM 239.658 13.4L 251.418 34.76L 263.298 13.4L 270.678 13.4L 254.778 40.76L 254.778 56L 248.058 56L 248.058 40.64L 232.278 13.4L 239.658 13.4Z"/>
<path id="path1_fill" d="M 14.8682 10.2832L 6.51855 39.3359C 6.11165 40.7845 5.9082 41.6715 5.9082 41.9971C 5.9082 42.2412 5.98145 42.4447 6.12793 42.6074C 6.29069 42.7702 6.486 42.8516 6.71387 42.8516C 7.02311 42.8516 7.35677 42.7132 7.71484 42.4365C 8.5612 41.7692 9.44824 40.7357 10.376 39.3359L 11.1084 40.0928C 9.56217 42.2738 8.13802 43.7956 6.83594 44.6582C 5.87565 45.2767 4.96419 45.5859 4.10156 45.5859C 3.48307 45.5859 2.96224 45.3743 2.53906 44.9512C 2.13216 44.528 1.92871 44.0397 1.92871 43.4863C 1.92871 42.9004 2.18913 41.696 2.70996 39.873L 9.32617 16.9727C 9.86328 15.1009 10.1318 14.0267 10.1318 13.75C 10.1318 13.3594 9.97721 13.042 9.66797 12.7979C 9.35872 12.5374 8.87858 12.4072 8.22754 12.4072C 7.85319 12.4072 7.28353 12.4642 6.51855 12.5781L 6.51855 11.6748L 14.8682 10.2832ZM 37.3779 22.9053L 32.6172 39.458L 32.0801 41.6797C 32.0312 41.8913 32.0068 42.0703 32.0068 42.2168C 32.0068 42.4772 32.0882 42.7051 32.251 42.9004C 32.3812 43.0469 32.5439 43.1201 32.7393 43.1201C 32.9508 43.1201 33.2275 42.9899 33.5693 42.7295C 34.2041 42.2575 35.0505 41.2809 36.1084 39.7998L 36.9385 40.3857C 35.8154 42.0785 34.6598 43.3724 33.4717 44.2676C 32.2835 45.1465 31.1849 45.5859 30.1758 45.5859C 29.4759 45.5859 28.9469 45.4069 28.5889 45.0488C 28.2471 44.707 28.0762 44.2025 28.0762 43.5352C 28.0762 42.7376 28.2552 41.6878 28.6133 40.3857L 29.126 38.5547C 26.9938 41.3379 25.0326 43.2829 23.2422 44.3896C 21.9564 45.1872 20.695 45.5859 19.458 45.5859C 18.2699 45.5859 17.2445 45.0977 16.3818 44.1211C 15.5192 43.1283 15.0879 41.7692 15.0879 40.0439C 15.0879 37.4561 15.861 34.7298 17.4072 31.8652C 18.9697 28.9844 20.9473 26.6813 23.3398 24.9561C 25.2116 23.5889 26.9775 22.9053 28.6377 22.9053C 29.6305 22.9053 30.4525 23.1657 31.1035 23.6865C 31.7708 24.2074 32.2754 25.07 32.6172 26.2744L 33.4961 23.4912L 37.3779 22.9053ZM 28.6865 24.1748C 27.6449 24.1748 26.5381 24.6631 25.3662 25.6396C 23.7061 27.0231 22.2249 29.0739 20.9229 31.792C 19.637 34.5101 18.9941 36.9678 18.9941 39.165C 18.9941 40.2718 19.2708 41.1507 19.8242 41.8018C 20.3776 42.4365 21.0124 42.7539 21.7285 42.7539C 23.5026 42.7539 25.4313 41.4437 27.5146 38.8232C 30.2979 35.3402 31.6895 31.7676 31.6895 28.1055C 31.6895 26.722 31.4209 25.721 30.8838 25.1025C 30.3467 24.484 29.6143 24.1748 28.6865 24.1748ZM 53.3447 10.2832L 48.5352 27.1533C 50.0977 25.5257 51.4567 24.4108 52.6123 23.8086C 53.7842 23.2064 55.0049 22.9053 56.2744 22.9053C 58.0648 22.9053 59.5296 23.4993 60.6689 24.6875C 61.8083 25.8757 62.3779 27.487 62.3779 29.5215C 62.3779 32.1419 61.6292 34.7542 60.1318 37.3584C 58.6344 39.9463 56.7546 41.9645 54.4922 43.4131C 52.2298 44.8617 50 45.5859 47.8027 45.5859C 45.3451 45.5859 42.8223 44.6663 40.2344 42.8271L 47.6562 17.2656C 48.2259 15.2962 48.5107 14.1406 48.5107 13.7988C 48.5107 13.3757 48.3805 13.0583 48.1201 12.8467C 47.7458 12.5537 47.1924 12.4072 46.46 12.4072C 46.1182 12.4072 45.5973 12.4642 44.8975 12.5781L 44.8975 11.6504L 53.3447 10.2832ZM 43.8965 43.0957C 45.5241 43.9909 46.9564 44.4385 48.1934 44.4385C 49.6257 44.4385 51.1068 43.9176 52.6367 42.876C 54.1829 41.818 55.5176 40.0439 56.6406 37.5537C 57.7799 35.0635 58.3496 32.5488 58.3496 30.0098C 58.3496 28.5124 57.9753 27.3405 57.2266 26.4941C 56.4941 25.6478 55.6234 25.2246 54.6143 25.2246C 53.1006 25.2246 51.6195 25.835 50.1709 27.0557C 48.7223 28.2601 47.6888 29.9447 47.0703 32.1094L 43.8965 43.0957Z"/>
<path id="path2_stroke" d="M 0 84L -1.5 84L -1.5 85.5L 0 85.5L 0 84ZM 0 0L 0 -1.5L -1.5 -1.5L -1.5 0L 0 0ZM 327 0L 328.5 0L 328.5 -1.5L 327 -1.5L 327 0ZM 327 84L 327 85.5L 328.5 85.5L 328.5 84L 327 84ZM 207.295 82.5L 0 82.5L 0 85.5L 207.295 85.5L 207.295 82.5ZM 1.5 84L 1.5 0L -1.5 0L -1.5 84L 1.5 84ZM 0 1.5L 327 1.5L 327 -1.5L 0 -1.5L 0 1.5ZM 325.5 0L 325.5 84L 328.5 84L 328.5 0L 325.5 0ZM 327 82.5L 286.125 82.5L 286.125 85.5L 327 85.5L 327 82.5Z"/>
</defs>
</svg>
